<svg xmlns="http://www.w3.org/2000/svg" viewBox="0 0 1200 630" role="img" aria-labelledby="title desc">
  <title>Agenda social card</title>
  <desc>Share preview card for the Agenda app.</desc>
  <defs>
    <linearGradient id="bg" x1="120" y1="60" x2="1060" y2="570" gradientUnits="userSpaceOnUse">
      <stop offset="0" stop-color="#6d1f5d" />
      <stop offset="0.56" stop-color="#df3da2" />
      <stop offset="1" stop-color="#ff8c61" />
    </linearGradient>
    <linearGradient id="panel" x1="760" y1="124" x2="1020" y2="458" gradientUnits="userSpaceOnUse">
      <stop offset="0" stop-color="#fffafc" />
      <stop offset="1" stop-color="#ffeaf6" />
    </linearGradient>
  </defs>
  <rect width="1200" height="630" rx="40" fill="#fff7fb" />
  <rect x="36" y="36" width="1128" height="558" rx="34" fill="url(#bg)" />
  <circle cx="1000" cy="120" r="88" fill="#ffffff" opacity="0.14" />
  <circle cx="206" cy="548" r="120" fill="#ffffff" opacity="0.08" />
  <g transform="translate(96 92)">
    <rect x="0" y="0" width="116" height="116" rx="32" fill="#ffffff" opacity="0.16" />
    <rect x="12" y="12" width="92" height="92" rx="28" fill="#fff8fc" />
    <path d="M32 42h36" fill="none" stroke="#7a183f" stroke-linecap="round" stroke-width="8" />
    <path d="M32 60h28" fill="none" stroke="#a53b72" stroke-linecap="round" stroke-width="8" />
    <circle cx="74" cy="62" r="17" fill="#6d1f5d" opacity="0.08" />
    <circle cx="74" cy="62" r="13" fill="none" stroke="#6d1f5d" stroke-width="6" />
    <path d="M67 63l6 6 11-14" fill="none" stroke="#ff6b77" stroke-linecap="round" stroke-linejoin="round" stroke-width="6" />
  </g>
  <g transform="translate(96 250)" fill="#fff9fc">
    <text x="0" y="0" font-family="Georgia, 'Times New Roman', serif" font-size="76" font-weight="700">
      Agenda
    </text>
    <text x="0" y="84" font-family="Georgia, 'Times New Roman', serif" font-size="32" opacity="0.92">
      Agenda personal minimalista para tareas, horas y rutinas.
    </text>
    <text x="0" y="140" font-family="Georgia, 'Times New Roman', serif" font-size="26" opacity="0.86">
      Ligera para uso diario. Lista para modo resumido o con enfoque en Cristo.
    </text>
  </g>
  <g transform="translate(760 126)">
    <rect width="280" height="378" rx="42" fill="#ffffff" opacity="0.14" />
    <rect x="18" y="18" width="244" height="342" rx="32" fill="url(#panel)" />
    <rect x="46" y="72" width="118" height="16" rx="8" fill="#7a183f" opacity="0.88" />
    <rect x="46" y="114" width="96" height="16" rx="8" fill="#a53b72" opacity="0.62" />
    <rect x="46" y="156" width="132" height="16" rx="8" fill="#df3da2" opacity="0.46" />
    <circle cx="182" cy="148" r="42" fill="#6d1f5d" opacity="0.08" />
    <circle cx="182" cy="148" r="30" fill="none" stroke="#6d1f5d" stroke-width="12" />
    <path d="M166 152l14 14 26-32" fill="none" stroke="#ff6b77" stroke-linecap="round" stroke-linejoin="round" stroke-width="12" />
    <rect x="46" y="236" width="156" height="52" rx="26" fill="#6d1f5d" />
    <text x="124" y="270" text-anchor="middle" fill="#fff8fc" font-family="Georgia, 'Times New Roman', serif" font-size="24">
      Nueva tarea
    </text>
  </g>
</svg>
